<?xml version="1.0" encoding="UTF-8"?>
<svg version="1.1" viewBox="0 0 1848 1320" width="462" height="330" xmlns="http://www.w3.org/2000/svg">
<path transform="translate(0)" d="m0 0h1848v1320h-1848z" fill="#194A9D"/>
<path transform="translate(498,276)" d="m0 0h505l26 2 22 4 20 6 16 7 14 7 18 11 17 13 13 12 9 10 10 13 12 18 8 16 6 15 6 19 4 19 1 9 1 44v305l-1 20-4 26-7 23-9 21-13 22-10 13-9 11-11 11-14 11-14 10-17 10-19 9-18 6-21 5-9 1-32 1h-480l-51-1-16-2-29-9-25-12-16-10-16-12-10-9-13-13-11-14-12-18-8-16-8-19-6-20-3-19-1-19-1-241v-57l1-60 2-18 6-20 9-24 11-20 12-17 11-13 9-10 14-12 13-9 16-10 15-8 23-9 19-5 23-3z" fill="#F5F5F5"/>
<path transform="translate(784,558)" d="m0 0 14 1 17 4 16 8 9 7 11 11 10 16 7 16 4 13 3 16 1 13v10l-3 23-4 17-7 16-9 14-11 12-9 8-12 7-16 6-16 3h-26l-16-4-17-8 2 75 3 17 2 7-35 1-23-1v-200l-1-64-3-20-3-8-3-1-3 19-2 16-7 3-15 4-12 6-15 14-9 9-3 5v56l-1 69-1 1h-37l-13-1-1-58v-100l-1-20-4-16-4-8-2-7 1-1 39-3h14l2 2 6 31v7l6-5 7-8 7-7 13-10 12-6 14-4 10 2 2 1h14l24-3h12l2 15v7l7-4 8-6 12-7 18-6z" fill="#194A9D"/>
<path transform="translate(459,425)" d="m0 0h15l2 1v47l-16 2-8 3-9 8-4 8-1 96-3 17-7 16-11 13-10 10v5l13 13 7 10 7 15 3 12 1 10 2 85 3 10 3 6 9 4 5 1 15 1 1 1v45l-3 3h-21l-14-3-12-5-10-7-10-9-9-12-6-15-2-9-1-11-1-89-3-7-9-10-14-12-10-9-7-7-3-7v-19l3-6 10-9 15-11 9-7 6-5 2-3 1-5 1-92 2-19 8-19 7-9 9-10 10-7 11-5 13-3z" fill="#194A9D"/>
<path transform="translate(1027,425)" d="m0 0h14l15 2 16 6 11 7 12 12 8 14 5 15 2 13 1 90 1 9 4 6 8 7 19 14 11 9 4 6v23l-2 4h-2l-2 4-12 11-11 9-12 11-5 6-1 4-1 93-2 14-6 15-7 10-7 8-10 8-12 7-11 4-5 1h-26l-1-4v-42l1-3 21-3 8-3 5-8 1-4 1-84 1-17 4-13 8-14 8-10 12-12-3-5-10-9-10-14-8-16-2-12-1-100-5-10-8-6-9-3-13-1-1-1v-46z" fill="#194A9D"/>
<path transform="translate(1384,761)" d="m0 0h3l1 28 1 148 2 8 3 5v5l-6 2-15 2h-10l-1-4v-10l-9 5-14 8-7 2h-16l-13-4-11-7-9-10-8-16-4-16v-30l5-16 6-10 9-10 9-7 9-4 9-2 15-1 15 3 8 4v-42l-1-25-1-5z" fill="#F5F5F5"/>
<path transform="translate(763,597)" d="m0 0h16l10 3 9 6 8 9 8 17 5 19 1 7v25l-3 15-5 15-8 13-6 7-11 7-11 3-13-1-10-4-6-4-7-8-5-11-3-13-1-8-1-38v-37l7-8 10-8 12-5z" fill="#F5F5F5"/>
<path transform="translate(892,565)" d="m0 0h55l1 209-1 1h-50l-1-1v-138l-1-46-1-12z" fill="#194A9D"/>
<path transform="translate(1457,827)" d="m0 0h22l12 4 11 7 7 7 7 12 4 15v15l-3 7-4 3-3 1h-70l3 14 4 10 7 9 8 6 3 1h14l10-3 11-7 5-1 10 15 1 4-6 5-12 5-17 4h-18l-17-4-12-6-12-11-9-14-5-17-1-7v-16l3-14 5-11 6-10 11-12 10-6 10-4z" fill="#F5F5F5"/>
<path transform="translate(1522,831)" d="m0 0h32l3 5 8 22 14 43 3 12 12-36 13-37 4-8 1-1h25l2 1-2 6-11 29-20 58-10 27-3 5-2 1h-19l-6-2-6-14-15-44-14-40-8-22z" fill="#F5F5F5"/>
<path transform="translate(1329,849)" d="m0 0h7l12 6 6 8 2 6 1 8v47l-5 5-9 6-6 2h-10l-10-5-6-7-5-11-2-13v-19l3-12 5-9 4-5 7-5z" fill="#194A9D"/>
<path transform="translate(915,455)" d="m0 0h13l12 5 8 7 6 12 1 4v11l-5 12-4 5-10 7-9 3h-13l-9-4-8-7-5-7-3-10v-10l4-11 7-8 7-6z" fill="#194A9D"/>
<path transform="translate(1462,848)" d="m0 0h9l8 4 5 5 4 10 1 8-5 2h-43l2-9 7-11 8-7z" fill="#194A9D"/>
</svg>
