<?xml version="1.0" encoding="UTF-8"?>
<svg version="1.1" viewBox="0 0 1848 1320" width="462" height="330" xmlns="http://www.w3.org/2000/svg">
<path transform="translate(494,276)" d="m0 0h517l24 2 26 6 18 6 20 10 18 11 16 12 13 11 12 13 12 16 9 14 9 17 8 21 4 13 3 15 2 20 1 24v322l-2 27-4 20-7 21-9 20-7 13-13 19-13 15-11 11-17 13-15 10-18 10-15 7-29 8-20 2-83 1h-396l-78-1-20-2-29-9-17-8-17-10-17-12-14-12-12-12-8-10-9-12-8-13-8-16-8-20-6-21-2-18-1-21v-340l1-20 2-14 7-24 8-20 9-17 14-20 9-11 11-12 11-9 15-11 15-9 19-10 25-9 17-4 18-2zm-47 150-12 3-14 7-10 8-7 8-7 10-7 17-1 6-1 68-1 41-7 8-10 8-18 13-9 8-2 6v17l3 8 9 9 11 9 14 12 7 8 2 4 1 76 1 25 3 14 8 16 10 12 10 8 16 8 11 3 13 1h15l1-34v-14l-20-3-11-5-5-10-1-13-1-75-2-17-5-14-6-11-8-10-10-10v-5l4-5 8-7 10-14 7-17 2-15 1-90 2-9 6-8 6-4 6-2 17-2v-47zm576 0v47l1 1 20 2 9 6 5 8 1 2 1 9 1 91 2 15 8 16 9 11 13 13 1 2-5 5-13 14-7 11-5 10-3 17-1 89-2 9-4 6-5 3-14 4-10 1-2 1v39l1 8 5 1 21-1 17-5 12-7 12-11 9-11 5-10 4-15 1-8 1-84 1-11 3-6 7-8 11-9 10-8 7-6 7-9 1-6v-10l-2-10-12-11-14-10-11-9-7-7-1-6-1-88-2-18-5-17-7-12-10-11-11-8-8-4-12-4-7-1zm-110 30-9 4-5 4-7 10-2 6v16l4 9 7 8 5 4 8 3 11 1 10-3 9-6 6-7 3-7 1-5v-10l-3-10-6-8-7-6-8-3zm-129 103-14 1-14 4-19 10-10 7-3 1-1-18-1-3h-12l-30 4h-7l-7-4-10 1-16 6-10 6-14 12-12 13h-3l-5-29-3-9h-17l-31 2-5 1 2 10 4 7 3 20 1 33 1 140h51l1-62v-63l4-6 12-13 10-9 10-6 9-3 13-3 3-6 6-28 1-4 2-1 4 23 1 10 1 215 1 48h56l-4-18-1-81 14 7 18 4h27l20-4 12-5 14-9 10-9 10-13 8-14 5-13 4-16 2-20v-14l-2-20-4-16-6-15-7-13-9-12-8-8-14-9-12-5-13-3zm108 6 3 12 1 25 1 173h47l3-1v-208l-1-1z" fill="#FBFCFC"/>
<path transform="translate(1354,761)" d="m0 0h33l1 1v93l1 82 2 9 3 6v3l-7 2-11 1h-11l-2-1-2-9-20 9-6 2-7 1h-10l-14-3-9-5-9-8-7-11-5-11-4-14v-28l5-17 7-13 9-10 8-6 10-4 11-2h19l12 3 5 2-1-65zm-27 89-9 4-7 8-5 13-2 17 2 18 4 12 6 8 7 5 4 1h12l8-3 7-6 2-4 1-14v-13l-1-23-4-12-8-9-5-2z" fill="#FBFCFC"/>
<path transform="translate(770,596)" d="m0 0 16 2 8 4 9 8 8 14 6 18 2 13v32l-4 18-5 12-7 11-8 8-10 5-5 1h-18l-9-3-9-7-6-9-6-17-1-8-1-72 1-9 7-8 10-7 9-4z" fill="#FBFCFC"/>
<path transform="translate(1458,827)" d="m0 0h19l12 3 12 6 6 5 6 9 5 11 3 12v13l-3 6-5 5-3 1h-68l2 15 9 18 4 2 7 4 5 1 14-1 9-4 6-4 4-3 4 1 7 10 3 9-8 6-11 4-15 3h-24l-13-3-13-7-9-8-8-12-5-13-2-10v-24l4-16 7-14 9-11 8-6 10-5zm4 21-7 4-8 9-5 11v5l2 1h37l6-2v-9l-4-11-8-7-3-1z" fill="#FBFCFC"/>
<path transform="translate(1522,831)" d="m0 0h33l4 9 15 43 8 27 1 1 4-15 17-49 6-15 1-1h28l-3 9-15 42-19 55-7 18-3 3h-21l-5-2-3-5-9-26-19-54-10-29-3-9z" fill="#FBFCFC"/>
</svg>
