<?xml version="1.0" encoding="UTF-8"?>
<svg version="1.1" viewBox="0 0 1848 1320" width="462" height="330" xmlns="http://www.w3.org/2000/svg">
<path transform="translate(494,277)" d="m0 0h509l29 3 25 5 23 8 22 11 16 10 18 14 12 11 9 10 13 18 8 13 8 16 8 21 5 18 3 17 1 11 1 168v187l-1 16-7 28-9 24-9 19-12 18-8 10-9 11h-2l-1 3-11 9-14 11-15 10-18 10-15 6-28 7-12 2-15 1-51 1h-451l-47-1-14-1-32-9-18-8-14-8-20-14-13-11-18-18-11-15-9-15-10-21-6-15-6-22-1-7-1-17-1-85v-153l1-117 1-20 3-16 7-23 9-22 9-15 12-17 10-11 7-8 12-11 15-11 18-11 23-11 19-6 24-5z" fill="#18489B"/>
<path transform="translate(777,558)" d="m0 0h19l14 3 13 5 14 9 10 9 10 14 9 17 8 24 2 12v32l-5 24-6 17-6 11-8 11-10 11-11 8-15 8-18 5-7 1h-26l-17-4-15-6v19l1 56 3 18v4l-2 1-20 1h-28l-7-2-1-24-1-242-3-21-2-8-5 21-2 16-2 2-19 4-12 6-10 9-14 14-4 5-1 125-3 2h-48l-1-1-1-150-1-22-3-17-6-18v-4l27-1h27l4 16 2 9 1 12h2l23-23 9-6 12-5 11-3h10l5 2 1 1 29-3 8-1h10l2 2 2 11v10l8-7 9-7 19-8z" fill="#FEFEFE"/>
<path transform="translate(1024,426)" d="m0 0h23l13 2 13 5 6 4 12 10 10 13 8 21 1 7 1 97 1 10 5 5 8 7 17 12 10 8 5 6 1 3v18l-2 7-7 9-10 9-11 8-9 8-6 9-1 3-1 94-2 15-4 8-4 9-10 13-12 10-11 6-16 5-6 1h-18l-5-5v-42l3-3 17-3 9-4h2l3-9 2-12 1-83 2-13 4-11 9-14 12-13 6-5-1-5-4-2-9-10-8-11-8-15-2-10-1-12-1-26v-66l-5-10-8-6v-2l-21-2-2-2v-45z" fill="#FEFEFE"/>
<path transform="translate(449,426)" d="m0 0h25l2 1 1 3-1 42-3 2-16 2-8 4-5 6-4 9-1 36-1 57-3 18-4 11-7 11-11 12-5 4-2 5 3 5 13 13 8 12 6 16 2 12 1 68 1 26 4 7 1 3 5 2 11 3 14 2 2 4v39l-2 5-8 2h-17l-17-5-16-9-11-10-7-10-5-10-4-12-1-7-2-99-5-10-12-10-11-9-13-12-4-7-1-5v-14l2-7 7-7 11-9 18-13 6-8 1-2 3-106 3-15 7-14 9-10 12-12 14-7 7-2z" fill="#FEFEFE"/>
<path transform="translate(1360,760)" d="m0 0h16l9 2 2 2 1 173 1 16-3 2-17 1-13-4-9 2-15 4h-17l-12-3-10-6-7-7-8-13-5-13-2-9v-26l3-13 5-12 8-11 8-8 8-5 7-2 11-1h11l24 2v-68l1-2zm-29 89-10 3-8 7-5 10-3 15v18l3 16 6 10 7 6 8 3h10l9-3 6-5 3-6 1-15v-22l-1-14-4-10-4-6-6-5-8-2z" fill="#FDFDFD"/>
<path transform="translate(893,564)" d="m0 0 55 1v209l-4 1h-48l-1-88v-34l-1-63-2-25z" fill="#FEFEFE"/>
<path transform="translate(762,597)" d="m0 0h18l11 4 10 8 6 9 6 13 5 18 2 13v16l-3 19-6 17-7 12-9 9-12 6-6 1h-11l-13-4-8-6-6-7-4-9-3-15-1-70 1-13 7-8 7-6 12-6z" fill="#18489B"/>
<path transform="translate(1457,829)" d="m0 0h22l13 3 11 7 8 9 7 16 3 11-1 10-4 6-10 5-5 1h-52l-4 1-2 5v11l4 10 4 6 11 7 6 2h10l15-5 9-5 4 2 6 8 2 5-5 5-6 4-13 3-8 1h-24l-14-3-14-8-9-10-8-16-3-12-1-8v-10l3-16 3-10 9-16 10-10 10-6 6-2zm6 18-9 5-8 9-3 7v8l4 3h24l12-1 5-4v-7l-3-10-4-5-10-5z" fill="#FEFEFE"/>
<path transform="translate(1530,831)" d="m0 0h21l6 5 4 10 12 37 4 9 4 17 3-3 10-26 8-23 5-15 6-11 16 1 6 2-2 11-16 49-11 31-6 16-4 8-5 6h-23l-3-3-9-24-10-30-8-21-7-19-7-22 1-4z" fill="#FDFDFD"/>
<path transform="translate(914,455)" d="m0 0h15l9 4 9 7 6 10 2 7v11l-4 10-6 8-9 6-9 3h-11l-10-3-10-9-5-10-1-3v-17l5-10 7-8z" fill="#FEFEFE"/>
</svg>
