<?xml version="1.0" encoding="UTF-8"?>
<svg version="1.1" viewBox="0 0 1848 1320" width="462" height="330" xmlns="http://www.w3.org/2000/svg">
<path transform="translate(0)" d="m0 0h1848v1320h-1848z"/>
<path transform="translate(527,275)" d="m0 0h424l61 1 25 2 18 4 24 8 24 12 19 12 13 10 13 12 9 9 14 19 10 16 9 17 8 21 4 18 2 23 1 32v314l-1 26-2 19-6 21-7 17-8 16-11 18-13 16-11 12-11 10-16 12-13 8-18 10-14 6-22 7-17 3-15 1h-530l-31-2-17-3-26-9-20-10-16-10-17-13-10-9-11-11-7-9-9-12-11-18-10-21-8-24-4-22-1-16v-344l2-31 3-15 9-26 8-18 11-18 9-12 9-11 9-10 10-9 16-12 20-12 16-8 20-8 15-4 21-3 14-1z" fill="#16489C"/>
<path transform="translate(780,558)" d="m0 0h13l16 3 13 5 12 7 10 8 11 14 9 16 6 15 4 14 2 15v27l-4 21-6 18-9 17-9 11-2 3h-2v2h-2v2l-8 6-13 8-13 5-12 3-7 1h-23l-18-4-12-5-5-3 1 56 1 25 3 17-1 1h-55l-1-1-1-161v-91l-1-18-4-21v-7l1-2 8-1 28-3h11l2 3 2 19 3-1 5-5 14-9 17-7z" fill="#F9F9F8"/>
<path transform="translate(1024,426)" d="m0 0h23l14 3 16 7 13 11 9 12 6 13 3 12 1 7 1 23 1 79 3 6 12 10 17 12 9 7 5 8 1 6-1 16-4 6-10 10-9 7-11 9-8 8-3 6-1 8-1 80-2 19-4 13-6 11-9 10-7 7-11 7-12 5-9 2-22 1-4-1-1-18v-28l1-1 16-2 11-4 5-5 3-5 1-5v-95l2-10 8-16 8-11 12-13 4-4-6-7-10-10-9-14-5-10-2-7-1-10-1-97-5-10-5-4-7-4-18-2-2-2v-45z" fill="#F9F9F8"/>
<path transform="translate(451,426)" d="m0 0h20l5 2-1 44-1 1-16 2-7 3-7 6-4 8-1 7-1 85-2 17-4 14-9 14-8 9-8 7-1 5 12 13 8 10 7 14 4 15 1 15 1 74 1 11 4 8 8 5 14 3 9 1 1 45-2 2h-26l-14-4-12-6-10-8-8-8-8-14-5-14-2-14-1-73-1-20-4-8-9-9-14-11-13-12-4-6-2-7v-15l3-6 11-10 18-13 10-9 4-6 1-9 1-101 4-12 7-13 11-13 8-7 10-6 10-4z" fill="#F9F9F8"/>
<path transform="translate(1360,761)" d="m0 0h27l1 171 3 14 3 9-17 3-6 1h-8l-2-14-14 9-11 5-6 1h-14l-13-4-10-6-8-8-7-11-6-17-1-6v-28l4-16 8-15 8-9 11-7 12-4 13-2h8l15 4 6 3v-59l-2-10-1-3z" fill="#F9F9F8"/>
<path transform="translate(662,561)" d="m0 0 9 1 2 2-2 10-4 15-3 20-13 3-12 4-11 7-12 11-11 12-1 2-1 37v88l-3 2h-48l-1-1-1-158-2-23-4-15-4-12 1-3 27-1h25l2 3 4 18 1 8v11l5-4 7-8 11-11 12-9 12-5z" fill="#F9F9F8"/>
<path transform="translate(892,565)" d="m0 0h56v209l-4 1h-48l-1-136-1-48z" fill="#F9F9F8"/>
<path transform="translate(770,596)" d="m0 0 14 2 12 6 8 8 8 15 5 16 3 16v22l-3 17-5 15-8 13-6 7-11 7-7 2h-17l-11-4-9-7-6-9-4-13-2-20v-68l3-7 10-9 14-7z" fill="#16489C"/>
<path transform="translate(1458,827)" d="m0 0h20l11 3 8 4 10 9 7 10 5 14 1 5v14l-3 7-4 4-41 1-32-1 3 16 6 12 8 9 8 4h16l12-5 9-7 4 2 9 13 1 5-8 6-15 5-16 3h-11l-13-2-12-4-13-9-9-10-7-14-4-14v-26l3-12 8-16 7-9 9-8 12-6z" fill="#F9F9F8"/>
<path transform="translate(1523,831)" d="m0 0h32l4 10 16 47 7 24 1 2 6-23 12-34 9-24 1-2h27l1 2-6 14-17 48-10 29-11 31-3 3h-18l-7-1-3-4-18-52-13-37-10-28z" fill="#F9F9F8"/>
<path transform="translate(1329,849)" d="m0 0h7l8 3 5 4 6 10 2 9v48l-4 6-9 6-7 2h-9l-10-4-6-7-5-10-3-13v-21l3-12 5-10 5-6 8-4z" fill="#000204"/>
<path transform="translate(915,455)" d="m0 0h12l11 4 8 7 4 5 4 8 1 3v11l-5 12-9 10-10 5-5 1h-9l-10-3-8-6-7-10-3-12 1-11 5-10 9-9z" fill="#F9F9F8"/>
<path transform="translate(1461,848)" d="m0 0h12l8 5 4 5 3 10v8l-7 2h-39l-1-5 4-10 7-9 5-4z" fill="#01050C"/>
</svg>
