<?xml version="1.0" encoding="UTF-8"?>
<svg version="1.1" viewBox="0 0 1848 1320" width="462" height="330" xmlns="http://www.w3.org/2000/svg">
<path transform="translate(489,276)" d="m0 0h521l32 3 22 6 17 6 23 12 14 9 14 10 15 13 9 10 13 17 10 15 9 17 9 23 6 26 2 20 1 330-1 32-2 18-4 17-8 22-12 25-11 16-10 13-12 13-10 9-19 14-18 11-15 8-16 6-23 6-15 2-14 1h-529l-30-2-14-3-23-7-16-8-18-10-14-10-10-8-10-9-9-9-8-10-13-18-12-23-8-20-6-21-3-22-1-21v-340l2-22 4-17 9-26 7-16 10-16 14-19 11-13 12-11 16-12 18-11 21-11 20-7 20-5 15-2zm-38 150-15 3-10 4-10 7-13 13-8 14-4 11-1 5-1 18-1 88-2 7-8 8-16 12-13 10-6 6-2 12 2 16 7 8 11 10 11 9 10 9 5 8 1 4 1 82 2 24 5 14 7 11 7 8 10 8 14 7 11 3 23 2h7l1-2v-46l-20-3-10-4-5-8-2-14-1-74-1-15-3-12-6-14-10-13-11-11-1-3 4-6 10-9 9-12 7-17 2-15 1-93 3-9 7-8 6-3 5-1 15-1 1-1v-46l-1-1zm572 0v48l21 2 6 4 6 7 4 8 1 79 1 24 2 12 7 13 8 10 15 15-2 4-10 9-9 11-6 10-4 10-1 7-1 63-1 39-5 9-4 3-11 3-16 2-1 1v45l2 3 27-2 15-4 11-6 12-10v-2h2l9-13 5-12 3-13 1-10 1-82 2-12 7-8 7-7 13-10 10-9 7-8 1-4v-16l-3-8-7-7-14-10-11-9-10-9-1-1-1-8-1-82-2-20-4-16-7-14-9-10-9-8-12-6-13-4-6-1zm-108 29-9 3-10 9-5 8-2 7v12l3 10 8 10 8 5 6 2h15l10-4 10-9 4-7 1-4v-18l-4-9-7-8-8-5-9-2zm-140 104-14 3-17 7-11 7-8 6-2-17-2-5-14 1-28 4h-5l-5-3-11-1-19 7-11 7-12 11-13 13h-1l-7-34-2-4h-21l-31 2-1 4 3 11 3 6 3 20 1 45v49l1 77h52l1-127 9-10 7-8 11-9 12-6 17-6 4-3 5-29 1-3h2l5 21 1 8 1 264h57l-1-11-2-8-1-23-1-57 14 7 19 4h22l19-3 12-4 15-8 10-8 11-12 7-11 6-12 6-17 2-11 1-11v-30l-3-18-5-16-9-19-10-14-9-9-11-7-16-7-15-3zm139 5-22 1 1 11 1 2 1 16 1 181h51l1-5v-165l-1-40-1-1z" fill="#2A2A2A"/>
<path transform="translate(1354,760)" d="m0 0h14l20 1v162l1 17 2 8 2 4v3l-2 1-17 2h-9l-3-4-1-4-7 1-16 7-10 2h-10l-16-4-9-6-8-8-6-10-5-11-4-14v-26l5-17 6-12 8-10 11-8 10-4 10-2h18l12 3 5 2v-59zm-28 90-10 5-6 8-4 10-2 9v18l3 16 6 12 7 6 6 2h13l10-4 7-8 1-13-1-38-3-10-6-9-8-4z" fill="#224F9C"/>
<path transform="translate(761,598)" d="m0 0h21l12 5 7 6 7 11 6 14 4 16 1 8v25l-4 20-6 15-8 11-7 7-8 4-9 2h-11l-9-2-10-6-6-7-5-11-4-14-1-14v-68l4-7 13-10 9-4z" fill="#2A2A2B"/>
<path transform="translate(1457,827)" d="m0 0h22l13 4 11 7 8 9 6 12 4 15v10l-3 7-4 5-7 2-64 1v10l4 12 7 10 9 6 3 1h13l10-3 11-7 4-2 7 9 4 7v5l-9 6-13 4-9 2-9 1h-9l-14-2-13-5-10-7-8-8-8-14-4-12-2-13v-11l3-16 7-16 7-10 9-9 16-8zm5 21-10 6-7 10-3 8v5l3 1h36l6-2v-8l-3-10-7-8-5-2z" fill="#224F9C"/>
<path transform="translate(1522,831)" d="m0 0h33l5 12 16 47 6 21v2h2l1-9 5-17 15-42 5-13 1-1h26l2 2-11 29-15 43-17 47-3 5-3 1h-10l-13-1-3-4-15-42-12-33-10-30-5-14z" fill="#224F9C"/>
<path transform="translate(670,573)" d="m0 0 3 1 5 21 1 8v221l-4 7h-1l-1-7-1-77v-86l-1-48-4 3-13 3-7-1v-3l2-3 13-5 2-7 4-23z" fill="#403F41"/>
<path transform="translate(952,559)" d="m0 0 3 1v183l-1 23-2 4-1-3-1-21v-11l-1-9 1-10v-65l-1-2 1-9-1-15-2-20v-39h1l1 12v-13h2v-5z" fill="#404042"/>
<path transform="translate(1054,699)" d="m0 0 4 1 2 5 2 1v56l-1 39-2-2-5 2-1-3v-92z" fill="#454548"/>
<path transform="translate(1054,486)" d="m0 0 3 1 4 8 1 96-2-1-1 6-4 1-1-2-1-30v-59z" fill="#3F3E40"/>
<path transform="translate(382,510)" d="m0 0h2l2 6 1 20 1 33 1 1v19l-2 7-4 3-2-3v-38z" fill="#403F41"/>
<path transform="translate(382,696)" d="m0 0 4 4 1 3-1 1v12l1 14v34l-2 4-2-1-1-9-1-24v-32z" fill="#403F40"/>
<path transform="translate(800,776)" d="m0 0 4 1v6l-1 1h-50l-3-2 3-3 11-1h22z" fill="#404042"/>
<path transform="translate(875,655)" d="m0 0 5 1 2 5v15l-2 7-4 2-1-3z" fill="#3E4047"/>
<path transform="translate(597,575)" d="m0 0 6 2 5 7v2l2 1v3l-3 3v3l-5 4-2-6-3-15z" fill="#404044"/>
<path transform="translate(386,703)" d="m0 0 2 1v22l-2-1-1-9v-12z" fill="#2A2B2C"/>
<path transform="translate(1051,867)" d="m0 0h9v2l-18 2-2-3z" fill="#413F3F"/>
<path transform="translate(872,708)" d="m0 0h3v8l-1 2h-4l-2-5h3z" fill="#403F41"/>
</svg>
