<?xml version="1.0" encoding="UTF-8"?>
<svg version="1.1" viewBox="0 0 1848 1320" width="462" height="330" xmlns="http://www.w3.org/2000/svg">
<path transform="translate(531,275)" d="m0 0h445l36 1 26 2 21 5 25 9 22 12 11 7 14 10 14 12 8 8 11 14 11 15 10 17 10 23 6 21 3 16 1 10 1 26v329l-2 26-5 23-8 22-10 21-9 14-8 11-11 13-15 15-16 12-15 10-22 12-19 7-19 5-14 2-14 1h-537l-27-2-17-4-21-7-16-8-14-8-17-12-13-11-8-7-9-11-7-8-10-14-9-16-10-22-8-25-3-21-1-15-1-86v-216l1-49 2-22 4-17 9-25 7-16 10-16 13-18 12-14 7-7 14-11 21-14 20-11 24-9 19-5 16-2 16-1zm-58 150-22 1-14 3-12 5-6 4-10 9-8 9-8 16-3 11-1 24-1 82-2 7-8 8-16 12-14 11-5 5-2 10v8l2 10 7 8 12 11 11 9 8 7 6 9 1 4 1 83 2 23 5 14 8 12 12 12 13 8 15 5 10 1h21l1-46-1-1-20-3-10-5-5-9-1-9-1-74-1-17-3-12-6-14-8-11-12-13-2-4 4-6 8-7 10-13 5-10 4-14 1-9 1-94 3-8 7-8 10-4 16-1 1-5v-42zm550 1v47l1 1 16 1 8 3 6 5 6 11 2 104 2 11 9 17 11 12 6 5 4 5-2 4-14 14-7 10-7 14-2 9-2 102-6 10-9 4-7 2-14 2-1 4v36l1 7h21l13-2 11-4 10-6 10-9 9-10 7-14 4-17 1-15 1-82 2-7 14-14 14-11 12-11 4-6 1-4v-14l-2-7-10-10-18-13-12-11-4-4-1-5-1-74-1-22-3-17-4-12-5-9-8-10-12-10-13-6-16-4zm-104 29-10 2-9 6-7 9-4 11v11l4 11 9 10 6 4 7 2h13l9-3 9-7 6-8 2-8v-15l-4-10-7-8-12-6zm-143 104-15 3-18 8-11 7-7 5-2-18-2-4-20 2-23 3-5-1-3-2-11-1-15 5-10 5-13 10-18 18-2 1-1-10-5-24-2-5h-18l-34 2-1 4 3 10 3 6 3 21 1 38 1 133h51l1-2v-122l3-6 14-15 10-9 12-6 19-6 3-3 5-28 1-6 3 3 3 14 2 24 1 242 1 11 21 1h34l1-3-3-14-1-13-1-70 12 7 16 4 9 1h17l15-2 14-4 16-8 13-10 9-10 9-14 5-10 6-18 2-11 1-13v-23l-2-17-4-15-7-17-8-14-11-12-10-9-16-8-15-4-8-1zm117 6-1 2 3 17 1 190 1 1h50v-209l-1-1z" fill="#1B499B"/>
<path transform="translate(1354,761)" d="m0 0h34v158l1 19 2 9 3 6v2l-8 2-10 1h-12l-4-9-5 1-16 8-9 2h-12l-13-3-10-5-10-10-7-11-6-16-2-9v-25l4-15 8-16 10-11 10-6 11-4 6-1h21l14 4 2 1-1-66zm-26 89-10 4-7 8-4 8-3 15v12l3 18 6 12 4 5 9 4h13l10-4 7-8v-53l-4-10-7-8-7-3z" fill="#2E2F2F"/>
<path transform="translate(769,597)" d="m0 0 13 1 10 4 8 6 9 13 7 19 3 20v22l-3 18-4 12-7 13-6 7-8 6-7 3-5 1h-15l-10-3-8-6-6-7-6-14-2-7-1-8v-78l6-8 12-9 12-4z" fill="#1C499B"/>
<path transform="translate(1456,827)" d="m0 0h23l13 4 11 7 8 9 6 12 4 15v10l-3 8-5 5-4 1h-67l2 15 4 10 7 9 8 5 3 1h13l10-3 9-6 3-3 4 1 10 14 1 5-8 6-11 4-13 3-8 1h-11l-17-3-14-7-10-8-9-13-6-16-2-11v-15l3-15 5-12 7-12 4-5 11-9 11-5zm6 21-7 4-8 9-4 8-1 8 4 1h35l6-1v-11l-4-10-8-7-3-1z" fill="#2E2E2F"/>
<path transform="translate(1522,831)" d="m0 0h33l3 5 12 36 7 22 5 17 3-8 12-36 9-26 5-10h26l2 2-7 18-10 29-14 40-13 35-3 3h-19l-7-2-3-5-10-29-15-42-16-46z" fill="#2E2F30"/>
</svg>
